<svg width="5578" height="5678" viewBox="0 0 5578 5678" fill="none" xmlns="http://www.w3.org/2000/svg">
<path d="M462.164 1831.44C315.649 1823.4 225.156 1815.41 116.403 1697.13C-89.3038 1473.41 19.9299 1026.93 335.41 976.035C406.512 964.565 510.905 972.785 586.418 975.305C662.19 977.095 737.972 977.905 813.755 977.745C1245.61 979.696 1685.44 991.576 2116.7 982.586C2173.4 976.526 2238.88 977.105 2296.51 976.195L2305.52 977.965C2376.51 991.596 2460.41 988.116 2533.93 988.166L2884.61 987.896C3014.43 987.596 3205.34 975.525 3325.17 1016.51C3633.03 1121.8 3670.07 1580.68 3405.8 1754.82C3331.67 1804.27 3256.58 1822.76 3168.5 1829.25C3172.84 1948.98 3170.95 2079.69 3171.62 2200.16L3176.37 2695.26C3176.96 2790.54 3173.98 2885.4 3172.99 2980.57C3172.81 2997.3 3178.43 3020.31 3191.22 3032.93L3199.48 3034.21C3256.04 2975.7 3334.25 2849.77 3381.19 2777.37C3466.46 2647.77 3550.23 2517.17 3632.48 2385.63C3812.41 2103.2 4005.21 1822.62 4188.95 1541.84C4271.29 1416.01 4374.82 1246.35 4479.7 1141.52C4543.59 1077.67 4645.61 1034.92 4737.39 1033.65C4780.56 1032.66 4823.39 1041.56 4862.6 1059.66C4917.38 1085.15 4973.96 1128.73 5024.32 1162.93C5088.7 1206.66 5152.63 1252.84 5215.88 1298.29C5227.72 1306.8 5242.62 1310.96 5254.75 1319.14C5329.55 1376.77 5412.19 1421.15 5480.47 1486.32C5554.26 1556.76 5573.36 1660.46 5577.27 1757.95C5579.39 1810.89 5543.45 1880.55 5515.36 1925.56C5403.73 2104.43 5282.73 2278.6 5167.55 2455.46L4285.45 3791.02C4199.57 3919.22 4114.8 4048.14 4031.13 4177.79C3958.89 4289.85 3856.01 4465.92 3767.24 4553.19C3713.98 4605.55 3583.66 4698.59 3520 4745.94L3101.39 5058.09C2945.26 5176.88 2790.18 5297.03 2636.16 5418.55C2535.34 5497.69 2435.04 5577.46 2330.67 5651.21C2265.84 5697.02 2150.92 5689.4 2182.32 5585.04C2256.12 5339.79 2336.02 5100.29 2406.26 4853.54C1919.81 4852.03 1433.37 4847.17 946.999 4838.98L579.787 4838.48C482.874 4838.35 376.921 4841.34 281.888 4824.06C94.512 4789.98 -1.73093 4573.49 0.399133 4401.19C2.73921 4286.21 50.4608 4176.81 133.153 4096.85C230.536 4003.57 323.949 3990.66 452.203 3993.37C448.433 3670.59 447.353 3347.79 448.943 3025C456.734 2627.2 461.134 2229.32 462.164 1831.44Z" fill="#3F5458"/>
<path d="M636.269 1847.27L3016.79 1842.36C3014.48 1928.8 3012.95 2015.25 3012.18 2101.7L3012 2293.43C3012.97 2404.29 3012.95 2515.16 3011.95 2626.03C3012.02 2689.84 3013.45 2758.5 3012.11 2821.88C3014.81 2941.85 3017.67 3046.74 3012.1 3166.95C3014.23 3233.55 3010.98 3292.35 2990.79 3356.79C2935.4 3472.23 2823.98 3588.32 2757.23 3699.18C2704.34 3787 2690.9 3894.83 2646.06 3986.43C2571.04 3995.68 2456.35 3993.54 2377.68 3994.52C2188.3 3996.29 1998.91 3996.76 1809.52 3995.93C1517.8 3998.86 1226.06 3998.38 934.358 3994.47C838.715 3992.63 730.312 3994.36 636.529 3987.5C636.359 3916.23 638.109 3835.49 635.699 3765.03C626.529 3713.65 630.909 3551.66 631.639 3490.86C641.129 3397.55 636.659 3251.24 636.349 3154.12L636.749 2957.11C637.149 2866.44 636.729 2775.78 635.479 2685.13C625.269 2641.97 627.209 2457.01 634.059 2416.51C639.369 2376.65 636.789 2263.98 636.749 2219.18L636.269 1847.27Z" fill="#EAEAE9"/>
<path d="M636.269 1847.27L3016.79 1842.36C3014.48 1928.8 3012.95 2015.25 3012.18 2101.7L3012 2293.43C3012.97 2404.29 3012.95 2515.16 3011.95 2626.03C2814.66 2639.88 2620.03 2673.54 2423.74 2704.17C1852.6 2793.28 1277.69 2862.99 706.321 2951.63C685.621 2954.84 657.58 2956.31 636.749 2957.11C637.149 2866.44 636.729 2775.78 635.479 2685.13C625.269 2641.97 627.209 2457.01 634.059 2416.51C639.369 2376.65 636.789 2263.98 636.749 2219.18L636.269 1847.27Z" fill="#EAEAE9"/>
<path d="M636.269 1847.27L3016.79 1842.36C3014.48 1928.8 3012.95 2015.25 3012.18 2101.7C2785.52 2118.68 2497.76 2171.27 2266.93 2205.92L1197.03 2358.42C1128.88 2368.33 662.52 2452.37 636.919 2437.29L634.059 2416.51C639.369 2376.65 636.789 2263.98 636.749 2219.18L636.269 1847.27Z" fill="#EAEAE9"/>
<path d="M634.059 2416.51L636.919 2437.29C662.52 2452.37 1128.88 2368.33 1197.03 2358.42L2266.93 2205.92C2497.76 2171.27 2785.52 2118.68 3012.18 2101.7L3012 2293.43L1880.27 2453.63C1492.79 2505.42 1106.15 2554.24 720.902 2621.14C694.881 2625.66 665.95 2626.21 642.259 2637.57C631.529 2656.13 635.629 2659.97 635.479 2685.13C625.269 2641.97 627.209 2457.01 634.059 2416.51Z" fill="#4A9487"/>
<path d="M3011.95 2626.03C3012.02 2689.84 3013.45 2758.5 3012.11 2821.88C3014.81 2941.85 3017.67 3046.74 3012.1 3166.95C2947.49 3175.01 2882.79 3182.2 2818.18 3190.16C2567.09 3221.07 2317.59 3266.13 2067.41 3303.54C1687.32 3360.73 1306.74 3414.71 925.728 3465.47C874.437 3472.35 673.21 3520.89 637.639 3502.04L631.639 3490.86C641.129 3397.55 636.659 3251.24 636.349 3154.12L636.749 2957.11C657.58 2956.31 685.621 2954.84 706.321 2951.63C1277.69 2862.99 1852.6 2793.28 2423.74 2704.17C2620.03 2673.54 2814.66 2639.88 3011.95 2626.03Z" fill="#EAEAE9"/>
<path d="M3011.95 2626.03C3012.02 2689.84 3013.45 2758.5 3012.11 2821.88C2900.29 2823.01 2727.92 2852.66 2615.39 2869.8C2446.82 2895.59 2278.07 2920.26 2109.18 2943.83L1021.37 3099.24C907.338 3116.26 744.643 3133.99 636.349 3154.12L636.749 2957.11C657.58 2956.31 685.621 2954.84 706.322 2951.63C1277.69 2862.99 1852.6 2793.28 2423.74 2704.17C2620.03 2673.54 2814.66 2639.88 3011.95 2626.03Z" fill="#4A9487"/>
<path d="M631.639 3490.86L637.639 3502.04C673.21 3520.89 874.437 3472.35 925.729 3465.47C1306.74 3414.71 1687.32 3360.73 2067.41 3303.54C2317.59 3266.13 2567.09 3221.07 2818.18 3190.16C2882.79 3182.2 2947.49 3175.01 3012.1 3166.95C3014.23 3233.55 3010.98 3292.35 2990.79 3356.79L1794.65 3532.79C1530.85 3572.84 1268.05 3612.59 1004.7 3655.64C892.808 3673.93 750.573 3674.72 635.669 3691.61C635.779 3715.41 636.479 3741.44 635.699 3765.03C626.529 3713.65 630.909 3551.66 631.639 3490.86Z" fill="#4A9487"/>
<path d="M424.652 1159.35C454.493 1155.8 528.746 1156.72 560.477 1156.68L813.105 1157.17C1083.86 1156.4 1354.62 1157.41 1625.36 1160.19L2623.77 1166.85C2819.22 1168.08 3014.12 1171.14 3210.06 1176.15C3317.77 1173.16 3401.95 1239.57 3412.01 1352.49C3428.09 1532.77 3331.67 1625.81 3163.01 1646.39C2602.13 1669.58 2016.51 1652.44 1453.43 1652.98C1224.55 1654.17 995.66 1654.1 766.773 1652.77C632.879 1652.56 494.445 1654.97 360.98 1644.44C325.239 1642.77 300.129 1628.61 271.858 1606.74C162.254 1521.98 144.004 1343.79 233.677 1238.19C284.218 1178.68 351.83 1165.71 424.652 1159.35Z" fill="#4A9487"/>
<path d="M1854.02 4164.89C2076.37 4164.07 2391.6 4153.08 2606.28 4167.16C2592.79 4245.07 2558.13 4329.53 2534.88 4406.3C2507.31 4497.28 2492.55 4598.23 2445.94 4680.89C2393.77 4691.89 2301.96 4689.09 2245.55 4688.88L1969.9 4687.98L926.138 4687.36C822.305 4685.64 718.462 4684.52 614.609 4684.01C506.725 4683.85 328.95 4699.61 247.397 4622.42C107.113 4493.92 144.914 4201.56 357.75 4179.64C501.675 4164.82 661.76 4172.51 807.355 4171.29L1854.02 4164.89Z" fill="#4A9487"/>
<path d="M4688.01 2102C4847.78 2183.81 4910.3 2244.08 5053.35 2341.82L4073.65 3822.68C4001.08 3931.43 3927.71 4039.85 3855.76 4148.95C3794.17 4242.32 3743.39 4338.94 3667.58 4422.3L3659.36 4424.37C3597.33 4412.48 3368.23 4250.28 3310 4209.55C3339.49 4153.55 3390.48 4081.5 3426.78 4027.63L3630.25 3725.23C3760.26 3528.33 3881.55 3318.08 4013.38 3124.76L4365.08 2610.88C4481.25 2440.73 4589.6 2283.17 4688.01 2102Z" fill="#4A9487"/>
<path d="M4254.6 1770.23C4349.48 1793.04 4492 1903.62 4559.57 1972.6C4473.65 2099.97 4387.51 2243.18 4301.37 2374.47L3501.29 3593.3C3458.33 3658.76 3211.1 4050.37 3175.27 4076.15C3099.16 4039.48 2933.69 3905.05 2857.38 3847.79C2879.2 3807.61 2931.44 3735.69 2958.37 3696.19C3013.62 3614.95 3068.36 3533.37 3122.57 3451.42C3323.21 3147.23 3526.03 2844.48 3731 2543.19C3840.31 2383.42 3948.44 2222.84 4055.38 2061.47C4104.51 1987.27 4202.4 1830.38 4254.6 1770.23Z" fill="#4A9487"/>
<path d="M4721.83 1228.33C4829.94 1217.75 4968.05 1366.21 5057.37 1420.48C5148.08 1477.1 5256.54 1521.25 5334.8 1595.9C5386.59 1645.32 5409.41 1742.34 5377.2 1807.89C5316 1932.45 5231.27 2052.86 5152.74 2167.42L5088.21 2118.11C5014.4 2059.28 4928.99 2021.27 4854.52 1967.58C4692.47 1850.75 4510.64 1738.27 4354.76 1614.58C4385.79 1558.27 4429.76 1506.84 4466.95 1454.2C4542.5 1347.23 4581.52 1257.24 4721.83 1228.33Z" fill="#4A9487"/>
<path d="M2825.8 4023.93C2956.59 4102.98 3068.6 4205.84 3193.5 4289.64C3315.08 4371.21 3417.77 4434.03 3534.74 4524.73C3486.46 4564.81 3410.29 4613.49 3356.91 4651.23C3276.08 4709.5 3195.75 4768.46 3115.92 4828.09C3031.27 4887.83 2947.67 4949.04 2865.15 5011.69L2593.21 4809.18C2642.64 4611.45 2707.02 4420.78 2768.86 4226.86C2790.15 4160.11 2812.22 4092.72 2825.8 4023.93Z" fill="#EAEAE9"/>
<path d="M2116.7 982.586C2070.65 865.382 2102.81 692.286 2143.27 577.673C2246.89 284.123 2497.51 97.3676 2795.18 26.9254C3298.23 -92.1184 3751.33 216.721 4201.88 387.657C4553.31 520.981 4905.09 525.631 5198.3 262.753C5261.73 206.021 5319.38 124.818 5395.04 83.3871C5470.13 67.0766 5526.67 160.65 5486.41 221.032C5343.83 434.858 5038.79 621.544 4785.59 653.015C4482.5 690.676 4134.28 568.132 3863.44 444.199C3514.68 284.613 3154.72 92.2774 2762.25 222.082C2588.76 277.683 2420.35 393.357 2338.95 560.822C2275.53 691.306 2250.8 836.611 2296.51 976.195C2238.88 977.105 2173.4 976.525 2116.7 982.586Z" fill="#4A9487"/>
</svg>
